<?xml version="1.0" encoding="UTF-8" standalone="no"?>
<!-- Created with Inkscape (http://www.inkscape.org/) -->

<svg
   xmlns:dc="http://purl.org/dc/elements/1.1/"
   xmlns:cc="http://creativecommons.org/ns#"
   xmlns:rdf="http://www.w3.org/1999/02/22-rdf-syntax-ns#"
   xmlns:svg="http://www.w3.org/2000/svg"
   xmlns="http://www.w3.org/2000/svg"
   xmlns:sodipodi="http://sodipodi.sourceforge.net/DTD/sodipodi-0.dtd"
   xmlns:inkscape="http://www.inkscape.org/namespaces/inkscape"
   id="svg3004"
   version="1.1"
   inkscape:version="0.48.4 r9939"
   width="728.74664"
   height="217.33376"
   xml:space="preserve"
   sodipodi:docname="New document 3"><metadata
     id="metadata3010"><rdf:RDF><cc:Work
         rdf:about=""><dc:format>image/svg+xml</dc:format><dc:type
           rdf:resource="http://purl.org/dc/dcmitype/StillImage" /><dc:title></dc:title></cc:Work></rdf:RDF></metadata><defs
     id="defs3008"><clipPath
       clipPathUnits="userSpaceOnUse"
       id="clipPath3078"><path
         d="m 0,420.945 595.276,0 L 595.276,0 0,0 0,420.945 z"
         id="path3080"
         inkscape:connector-curvature="0" /></clipPath></defs><sodipodi:namedview
     pagecolor="#ffffff"
     bordercolor="#666666"
     borderopacity="1"
     objecttolerance="10"
     gridtolerance="10"
     guidetolerance="10"
     inkscape:pageopacity="0"
     inkscape:pageshadow="2"
     inkscape:window-width="1920"
     inkscape:window-height="1056"
     id="namedview3006"
     showgrid="false"
     inkscape:zoom="1.6743279"
     inkscape:cx="404.29491"
     inkscape:cy="159.48999"
     inkscape:window-x="1920"
     inkscape:window-y="24"
     inkscape:window-maximized="1"
     inkscape:current-layer="g3076"
     fit-margin-top="0"
     fit-margin-left="0"
     fit-margin-right="0"
     fit-margin-bottom="0" /><g
     id="g3012"
     inkscape:groupmode="layer"
     inkscape:label="hltsys_saco_v2"
     transform="matrix(1.25,0,0,-1.25,-6.0939,280.07891)"><g
       id="g3074"><g
         id="g3076"
         clip-path="url(#clipPath3078)"><g
           id="g3014"
           transform="translate(146.60392,158.14243)"><path
             inkscape:connector-curvature="0"
             d="m 0,0 -65.666,-38.61 0,-16.504 L 0.489,-16.499 0,0 z"
             style="fill:#3d366b;fill-opacity:1;fill-rule:nonzero;stroke:none"
             id="path3016" /></g><g
           id="g3018"
           transform="translate(80.93792,81.519729)"><path
             inkscape:connector-curvature="0"
             d="M 0,0 65.68,38.614 66.147,55.115 0,16.503 0,0 z"
             style="fill:#3d366b;fill-opacity:1;fill-rule:nonzero;stroke:none"
             id="path3020" /></g><g
           id="g3022"
           transform="translate(80.93792,76.638929)"><path
             inkscape:connector-curvature="0"
             d="m 0,0 0,-16.504 65.676,38.615 0.472,16.5 L 0,0 z"
             style="fill:#3d366b;fill-opacity:1;fill-rule:nonzero;stroke:none"
             id="path3024" /></g><g
           id="g3026"
           transform="translate(150.97712,172.83213)"><path
             inkscape:connector-curvature="0"
             d="m 0,0 -70.902,40.938 -60.292,-34.811 60.45,-34.9 47.36,27.341 4.023,-2.322 -51.531,-29.752 -68.879,39.769 68.952,39.809 L 0,5.183 0,0 z m 0,-76.591 -70.819,-40.885 -70.817,40.888 0,68.892 70.82,-40.894 L 0,-7.705 0,-76.591 z m -27.854,77.739 -42.89,-24.763 -42.825,24.724 42.89,24.765 42.825,-24.726 z m -42.825,29.884 -47.357,-27.344 -4.221,2.439 51.355,29.649 68.632,-39.628 -68.546,-39.575 -70.82,40.889 0,4.722 70.744,-40.848 60.466,34.91 -60.253,34.786 z M 4.469,7.765 -70.819,51.231 -146.102,7.767 l 0,-86.934 75.283,-43.469 75.288,43.465 0,86.936 z"
             style="fill:#171742;fill-opacity:1;fill-rule:nonzero;stroke:none"
             id="path3028" /></g><g
           id="g3030"
           transform="translate(72.30723,173.57353)"><path
             inkscape:connector-curvature="0"
             d="M 0,0 7.745,-4.493 15.491,-0.002 7.745,4.471 0,0 z M 7.745,-9.658 -8.923,0.008 7.745,9.63 24.413,0.007 7.745,-9.658 z"
             style="fill:#171742;fill-opacity:1;fill-rule:nonzero;stroke:none"
             id="path3032" /></g><g
           id="g3034"
           transform="translate(13.370027,158.15253)"><path
             inkscape:connector-curvature="0"
             d="m 0,0 -0.01,-16.501 66.798,-38.623 0,16.504 L 0,0 z"
             style="fill:#171742;fill-opacity:1;fill-rule:nonzero;stroke:none"
             id="path3036" /></g><g
           id="g3038"
           transform="translate(13.383227,136.64223)"><path
             inkscape:connector-curvature="0"
             d="m 0,0 -0.013,-16.498 66.803,-38.625 0,16.504 L 0,0 z"
             style="fill:#171742;fill-opacity:1;fill-rule:nonzero;stroke:none"
             id="path3040" /></g><g
           id="g3042"
           transform="translate(13.380127,115.25293)"><path
             inkscape:connector-curvature="0"
             d="m 0,0 -0.013,-16.499 66.801,-38.626 0,16.507 L 0,0 z"
             style="fill:#171742;fill-opacity:1;fill-rule:nonzero;stroke:none"
             id="path3044" /></g><g
           id="g3046"
           transform="translate(228.79182,163.30593)"><path
             inkscape:connector-curvature="0"
             d="m 0,0 -16.457,0 0,8.731 -5.098,0 0,-23.025 5.098,0 0,9.635 16.457,0 0,-9.635 5.091,0 0,23.025 L 0,8.731 0,0 z"
             style="fill:#171742;fill-opacity:1;fill-rule:nonzero;stroke:none"
             id="path3048" /></g><g
           id="g3050"
           transform="translate(292.99113,153.67293)"><path
             inkscape:connector-curvature="0"
             d="m 0,0 -19.628,0 0,4.974 13.073,0 0,4.659 -13.073,0 0,4.068 18.796,0 0,4.663 -23.894,0 0,-23.025 L 0,-4.661 0,0 z"
             style="fill:#171742;fill-opacity:1;fill-rule:nonzero;stroke:none"
             id="path3052" /></g><g
           id="g3054"
           transform="translate(344.12033,158.45333)"><path
             inkscape:connector-curvature="0"
             d="M 0,0 -9.374,0 -4.668,8.703 0,0 z m -7.611,13.583 -12.54,-23.024 5.637,0 2.565,4.78 14.52,0 2.562,-4.78 5.64,0 -12.54,23.024 -5.844,0 z"
             style="fill:#171742;fill-opacity:1;fill-rule:nonzero;stroke:none"
             id="path3056" /></g><g
           id="g3058"
           transform="translate(407.98652,153.67293)"><path
             inkscape:connector-curvature="0"
             d="m 0,0 -17.201,0 0,18.364 -5.094,0 0,-23.025 L 0,-4.661 0,0 z"
             style="fill:#171742;fill-opacity:1;fill-rule:nonzero;stroke:none"
             id="path3060" /></g><g
           id="g3062"
           transform="translate(439.47762,167.37383)"><path
             inkscape:connector-curvature="0"
             d="m 0,0 10.65,0 0,-18.361 5.091,0 0,18.361 10.653,0 0,4.663 L 0,4.663 0,0 z"
             style="fill:#171742;fill-opacity:1;fill-rule:nonzero;stroke:none"
             id="path3064" /></g><g
           id="g3066"
           transform="translate(503.17402,158.64733)"><path
             inkscape:connector-curvature="0"
             d="m 0,0 16.46,0 0,-9.635 5.091,0 0,23.024 -5.091,0 0,-8.73 -16.46,0 0,8.73 -5.095,0 0,-23.024 5.095,0 L 0,0 z"
             style="fill:#171742;fill-opacity:1;fill-rule:nonzero;stroke:none"
             id="path3068" /></g><g
           id="g3070"
           transform="translate(568.81662,149.01233)"><path
             inkscape:connector-curvature="0"
             d="m 0,0 5.097,0 0,8.99 13.163,14.032 -6.292,0 -9.366,-9.987 -9.367,9.989 -6.325,0 L 0,8.991 0,0 z"
             style="fill:#171742;fill-opacity:1;fill-rule:nonzero;stroke:none"
             id="path3072" /></g><g
           id="g3082"
           transform="translate(230.02822,113.36903)"><path
             inkscape:connector-curvature="0"
             d="m 0,0 c -1.612,0.98 -4.206,1.638 -7.946,2.01 -2.539,0.239 -5.078,0.47 -7.577,0.684 -1.644,0.279 -2.48,0.835 -2.48,1.661 0,1.874 3.835,2.269 7.048,2.269 3.329,0 6.453,-0.753 9.285,-2.237 L -1.421,4.252 1.75,7.597 1.395,7.847 c -3.164,2.21 -7.341,3.329 -12.419,3.329 -3.819,0 -6.841,-0.645 -8.975,-1.921 -2.2,-1.309 -3.316,-3.118 -3.316,-5.371 0,-1.884 0.711,-3.338 2.116,-4.328 1.351,-0.95 3.462,-1.569 6.262,-1.838 0.72,-0.076 2.64,-0.185 5.702,-0.33 1.944,-0.095 3.394,-0.272 4.299,-0.529 1.526,-0.437 2.266,-1.134 2.266,-2.141 0,-0.915 -0.606,-1.635 -1.846,-2.213 -1.319,-0.615 -3.229,-0.925 -5.672,-0.925 -4.371,0 -8.101,1.059 -11.091,3.155 l -0.292,0.207 -2.799,-3.665 0.296,-0.223 c 3.476,-2.645 8.173,-3.989 13.954,-3.989 4.108,0 7.298,0.673 9.489,2.009 2.242,1.368 3.377,3.345 3.377,5.861 C 2.746,-2.809 1.823,-1.106 0,0"
             style="fill:#171742;fill-opacity:1;fill-rule:nonzero;stroke:none"
             id="path3084" /></g><g
           id="g3086"
           transform="translate(278.01962,113.97743)"><path
             inkscape:connector-curvature="0"
             d="m 0,0 -9.366,9.988 -6.322,0 13.091,-14.03 0,-8.995 5.094,0 0,8.991 13.165,14.034 -6.295,0 L 0,0 z"
             style="fill:#171742;fill-opacity:1;fill-rule:nonzero;stroke:none"
             id="path3088" /></g><g
           id="g3090"
           transform="translate(348.17513,113.36903)"><path
             inkscape:connector-curvature="0"
             d="m 0,0 c -1.582,0.967 -4.259,1.645 -7.946,2.01 -2.536,0.239 -5.075,0.47 -7.581,0.684 C -17.168,2.973 -18,3.532 -18,4.355 c 0,1.874 3.835,2.269 7.048,2.269 3.328,0 6.449,-0.753 9.281,-2.237 L -1.42,4.252 1.749,7.597 1.397,7.847 c -3.166,2.21 -7.343,3.329 -12.421,3.329 -3.819,0 -6.838,-0.645 -8.972,-1.921 -2.2,-1.309 -3.319,-3.118 -3.319,-5.371 0,-1.884 0.713,-3.338 2.115,-4.328 1.352,-0.95 3.456,-1.569 6.262,-1.838 0.72,-0.076 2.64,-0.185 5.707,-0.33 1.94,-0.095 3.39,-0.272 4.295,-0.529 1.526,-0.437 2.269,-1.134 2.269,-2.141 0,-0.911 -0.605,-1.635 -1.849,-2.213 -1.322,-0.615 -3.233,-0.925 -5.676,-0.925 -4.368,0 -8.094,1.059 -11.084,3.155 l -0.295,0.207 -2.796,-3.665 0.296,-0.223 c 3.472,-2.645 8.169,-3.989 13.951,-3.989 4.108,0 7.298,0.673 9.488,2.009 2.247,1.368 3.381,3.345 3.381,5.861 C 2.749,-2.809 1.826,-1.106 0,0"
             style="fill:#171742;fill-opacity:1;fill-rule:nonzero;stroke:none"
             id="path3092" /></g><g
           id="g3094"
           transform="translate(383.13972,119.30183)"><path
             inkscape:connector-curvature="0"
             d="m 0,0 10.649,0 0,-18.361 5.091,0 0,18.361 10.65,0 0,4.661 L 0,4.661 0,0 z"
             style="fill:#171742;fill-opacity:1;fill-rule:nonzero;stroke:none"
             id="path3096" /></g><g
           id="g3098"
           transform="translate(444.66433,110.57323)"><path
             inkscape:connector-curvature="0"
             d="m 0,0 13.073,0 0,4.664 -13.073,0 0,4.065 18.799,0 0,4.66 -23.893,0 0,-23.022 24.722,0 0,4.661 L 0,-4.972 0,0 z"
             style="fill:#171742;fill-opacity:1;fill-rule:nonzero;stroke:none"
             id="path3100" /></g><g
           id="g3102"
           transform="translate(512.67202,111.63263)"><path
             inkscape:connector-curvature="0"
             d="m 0,0 -8.785,12.175 -0.112,0.155 -7.09,0 0,-23.022 5.098,0 0,17.848 10.886,-14.957 10.823,14.681 0.109,-17.572 5.092,0 0,23.022 -7.108,0 L 0,0 z"
             style="fill:#171742;fill-opacity:1;fill-rule:nonzero;stroke:none"
             id="path3104" /></g><g
           id="g3106"
           transform="translate(575.01942,100.80873)"><path
             inkscape:connector-curvature="0"
             d="m 0,0 z m 10.104,12.56 c -1.586,0.967 -4.26,1.645 -7.946,2.01 -2.536,0.24 -5.075,0.47 -7.578,0.684 -1.648,0.28 -2.48,0.838 -2.48,1.661 0,1.874 3.835,2.269 7.052,2.269 3.331,0 6.455,-0.756 9.281,-2.24 l 0.249,-0.132 3.171,3.345 -0.352,0.25 c -3.164,2.211 -7.343,3.329 -12.421,3.329 -3.819,0 -6.839,-0.645 -8.976,-1.921 -2.201,-1.309 -3.312,-3.118 -3.312,-5.374 0,-1.881 0.707,-3.335 2.112,-4.324 1.351,-0.951 3.456,-1.57 6.261,-1.839 0.721,-0.076 2.641,-0.184 5.71,-0.329 C 2.816,9.853 4.259,9.676 5.17,9.42 6.697,8.982 7.436,8.285 7.436,7.278 7.436,6.364 6.827,5.643 5.584,5.062 4.262,4.45 2.358,4.141 -0.089,4.141 c -4.367,0 -8.093,1.059 -11.087,3.154 l -0.293,0.207 -2.798,-3.664 0.299,-0.224 c 3.476,-2.644 8.17,-3.989 13.952,-3.989 l 0.016,0 c 4.098,0 7.282,0.674 9.469,2.01 2.249,1.368 3.384,3.341 3.384,5.86 0,2.257 -0.925,3.96 -2.749,5.065"
             style="fill:#171742;fill-opacity:1;fill-rule:nonzero;stroke:none"
             id="path3108" /></g></g></g></g></svg>