<?xml version="1.0" encoding="utf-8"?>
<!-- Generator: Adobe Illustrator 15.0.0, SVG Export Plug-In . SVG Version: 6.00 Build 0)  -->
<!DOCTYPE svg PUBLIC "-//W3C//DTD SVG 1.1//EN" "http://www.w3.org/Graphics/SVG/1.1/DTD/svg11.dtd">
<svg version="1.1" id="Layer_1" xmlns="http://www.w3.org/2000/svg" xmlns:xlink="http://www.w3.org/1999/xlink" x="0px" y="0px"
	 width="150px" height="73px" viewBox="0 0 150 73" enable-background="new 0 0 150 73" xml:space="preserve">
<g>
	<rect x="0.501" fill="#FFFFFF" width="119.201" height="59.604"/>
	<rect x="0.501" fill="#EF413E" width="29.801" height="29.802"/>
	<rect x="60.102" y="0.002" fill="#0E67B2" width="29.798" height="29.8"/>
	<rect x="119.702" y="0.002" fill="#FCB033" width="29.798" height="29.8"/>
	<rect x="30.302" y="29.802" fill="#994A9C" width="29.8" height="29.801"/>
	<rect x="89.9" y="29.802" fill="#8DC641" width="29.804" height="29.801"/>
	<path fill="#1B181C" d="M21.381,36.918c0-0.028,0.027-0.077,0.027-0.103c0-0.157-0.105-0.232-0.284-0.232H18.52
		c-0.155,0-0.232,0.052-0.257,0.182l-2.81,10.463l-2.938-10.463c-0.026-0.129-0.104-0.182-0.257-0.182H9.679
		c-0.181,0-0.286,0.076-0.286,0.232c0,0.025,0.027,0.074,0.027,0.103l4.796,15.722c0.053,0.131,0.127,0.18,0.257,0.18h1.856
		c0.129,0,0.232-0.049,0.257-0.18L21.381,36.918z"/>
	<path fill="#1B181C" d="M79.797,39.031v-2.19c0-0.182-0.105-0.258-0.26-0.258h-9.073c-0.179,0-0.256,0.076-0.256,0.258v2.19
		c0,0.182,0.078,0.26,0.256,0.26h2.811c0.181,0,0.257,0.072,0.257,0.256v13.018c0,0.18,0.079,0.256,0.259,0.256h2.423
		c0.181,0,0.256-0.076,0.256-0.256V39.547c0-0.184,0.078-0.256,0.259-0.256h2.809C79.718,39.291,79.797,39.213,79.797,39.031"/>
	<path fill="#FFFFFF" d="M105.989,46.74c0,0.025,0.022,0.076,0.022,0.104c0,0.152-0.103,0.232-0.281,0.232h-1.882
		c-0.182,0-0.285-0.08-0.285-0.232c0-0.027,0.026-0.078,0.026-0.104l0.876-3.402c0.027-0.156,0.131-0.621,0.311-1.418h0.076
		c0.155,0.797,0.261,1.262,0.285,1.418L105.989,46.74z M110.783,52.488l-4.794-15.721c-0.055-0.131-0.13-0.184-0.259-0.184h-1.856
		c-0.155,0-0.207,0.052-0.261,0.184L98.82,52.488c0,0.051-0.024,0.076-0.024,0.102c0,0.154,0.102,0.23,0.283,0.23h2.578
		c0.128,0,0.23-0.049,0.257-0.18l0.775-2.705c0.022-0.129,0.102-0.154,0.257-0.154h3.687c0.154,0,0.232,0.025,0.257,0.154
		l0.772,2.705c0.025,0.131,0.103,0.18,0.257,0.18h2.604c0.182,0,0.284-0.076,0.284-0.23
		C110.808,52.564,110.783,52.539,110.783,52.488"/>
	<path fill="#FFFFFF" d="M17.89,18.461c0,1.029-0.826,1.854-1.859,1.854h-2.834c-0.181,0-0.256-0.078-0.256-0.256V9.749
		c0-0.18,0.076-0.258,0.256-0.258h2.834c1.007,0,1.859,0.85,1.859,1.856V18.461z M20.828,18.228v-6.649
		c0-2.941-1.859-4.796-4.797-4.796h-5.796c-0.185,0-0.26,0.077-0.26,0.261v15.723c0,0.179,0.075,0.257,0.26,0.257h5.796
		C18.969,23.023,20.828,21.167,20.828,18.228"/>
	<path fill="#1B181C" d="M47.663,18.718c0,1.055-0.799,1.857-1.829,1.857h-1.266c-1.029,0-1.854-0.825-1.854-1.857v-7.63
		c0-1.029,0.825-1.854,1.854-1.854h1.266c1.03,0,1.829,0.796,1.829,1.854V18.718z M50.626,18.718v-7.63
		c0-2.733-1.907-4.562-4.793-4.562h-1.266c-2.883,0-4.792,1.829-4.792,4.562v7.63c0,2.731,1.88,4.563,4.792,4.563h1.266
		C48.72,23.282,50.626,21.45,50.626,18.718"/>
	<path fill="#FFFFFF" d="M79.809,22.766v-2.191c0-0.182-0.102-0.26-0.26-0.26h-6.131c-0.183,0-0.26-0.078-0.26-0.256V7.043
		c0-0.184-0.103-0.261-0.256-0.261h-2.45c-0.182,0-0.259,0.077-0.259,0.261v15.723c0,0.179,0.077,0.257,0.259,0.257h9.097
		C79.73,23.023,79.809,22.945,79.809,22.766"/>
	<path fill="#1B181C" d="M109.957,19.981l-2.243-1.108c-0.05-0.025-0.075-0.025-0.13-0.025c-0.129,0-0.231,0.182-0.386,0.49
		c-0.438,0.825-0.902,1.237-1.646,1.237h-1.266c-1.03,0-1.858-0.825-1.858-1.857v-7.63c0-1.029,0.828-1.854,1.858-1.854h1.266
		c0.744,0,1.236,0.435,1.675,1.234c0.15,0.286,0.204,0.438,0.357,0.438c0.028,0,0.08,0,0.13-0.023l2.243-1.11
		c0.103-0.053,0.155-0.104,0.155-0.205c0-0.286-0.619-1.445-1.649-2.192c-0.799-0.592-1.755-0.85-2.911-0.85h-1.266
		c-2.886,0-4.794,1.829-4.794,4.562v7.63c0,2.732,1.88,4.563,4.794,4.563h1.266c1.441,0,2.55-0.389,3.323-1.187
		c0.878-0.903,1.237-1.651,1.237-1.91C110.112,20.084,110.06,20.032,109.957,19.981"/>
	<path fill="#FFFFFF" d="M139.409,22.766v-2.191c0-0.182-0.105-0.26-0.259-0.26h-6.133c-0.18,0-0.258-0.078-0.258-0.256v-3.663
		c0-0.182,0.078-0.257,0.258-0.257h5.023c0.182,0,0.26-0.077,0.26-0.256v-2.192c0-0.18-0.078-0.255-0.26-0.255h-5.023
		c-0.18,0-0.258-0.078-0.258-0.26V9.747c0-0.179,0.078-0.257,0.258-0.257h6.133c0.18,0,0.259-0.079,0.259-0.256V7.043
		c0-0.184-0.105-0.261-0.259-0.261h-9.097c-0.181,0-0.26,0.077-0.26,0.261v15.723c0,0.179,0.079,0.257,0.26,0.257h9.097
		C139.33,23.023,139.409,22.945,139.409,22.766"/>
	<path fill="#FFFFFF" d="M46.682,52.564V36.843c0-0.184-0.103-0.26-0.258-0.26h-2.447c-0.182,0-0.256,0.076-0.256,0.26v15.721
		c0,0.18,0.075,0.258,0.256,0.258h2.447C46.605,52.822,46.682,52.744,46.682,52.564"/>
	<path fill="#1B181C" d="M97.878,67.213c0,1.184-0.853,2.016-2.137,2.016h-1.305c-0.082,0-0.119,0.037-0.119,0.121v3.082
		c0,0.086-0.035,0.121-0.117,0.121h-0.831c-0.084,0-0.119-0.035-0.119-0.121v-7.234c0-0.088,0.035-0.119,0.119-0.119h2.372
		C97.047,65.078,97.878,65.908,97.878,67.213 M96.811,67.096c0-0.594-0.477-1.072-1.069-1.072h-1.305
		c-0.082,0-0.119,0.039-0.119,0.121v2.016c0,0.084,0.037,0.121,0.119,0.121h1.305c0.593,0,1.069-0.475,1.069-1.068V67.096z"/>
	<path fill="#1B181C" d="M101.319,72.67h-0.356c-1.294,0-2.135-0.805-2.135-2.018v-3.676c0-1.211,0.841-2.02,2.135-2.02h0.356
		c1.295,0,2.136,0.809,2.136,2.02v3.676C103.455,71.865,102.614,72.67,101.319,72.67 M102.389,66.977
		c0-0.596-0.477-1.068-1.069-1.068h-0.356c-0.592,0-1.067,0.473-1.067,1.068v3.676c0,0.594,0.476,1.07,1.067,1.07h0.356
		c0.593,0,1.069-0.477,1.069-1.07V66.977z"/>
	<path fill="#1B181C" d="M109.47,72.459c0,0.059-0.047,0.094-0.115,0.094h-0.915l-0.106-0.084l-1.104-3.166l-0.096-0.074h-1.176
		c-0.082,0-0.117,0.037-0.117,0.121v3.082c0,0.086-0.037,0.121-0.119,0.121h-0.831c-0.085,0-0.119-0.035-0.119-0.121v-7.234
		c0-0.088,0.034-0.119,0.119-0.119h2.373c1.305,0,2.137,0.83,2.137,2.135v0.119c0,0.414-0.227,0.926-0.677,1.354
		c-0.214,0.197-0.426,0.236-0.426,0.352c0,0.014,0,0.025,0.012,0.039l1.149,3.322C109.47,72.422,109.47,72.432,109.47,72.459
		 M108.333,67.096c0-0.594-0.478-1.072-1.069-1.072h-1.306c-0.082,0-0.117,0.039-0.117,0.121v2.016c0,0.084,0.035,0.121,0.117,0.121
		h1.306c0.592,0,1.069-0.475,1.069-1.068V67.096z"/>
	<path fill="#1B181C" d="M114.194,66.023h-1.365c-0.081,0-0.118,0.039-0.118,0.121v6.289c0,0.084-0.037,0.119-0.118,0.119h-0.832
		c-0.082,0-0.118-0.035-0.118-0.119v-6.289c0-0.082-0.036-0.121-0.119-0.121h-1.363c-0.083,0-0.119-0.033-0.119-0.115v-0.711
		c0-0.086,0.036-0.119,0.119-0.119h4.034c0.083,0,0.12,0.033,0.12,0.119v0.711C114.314,65.99,114.277,66.023,114.194,66.023"/>
	<path fill="#1B181C" d="M117.564,72.67h-0.354c-1.296,0-2.137-0.805-2.137-2.018v-3.676c0-1.211,0.841-2.02,2.137-2.02h0.354
		c1.296,0,2.138,0.809,2.138,2.02v3.676C119.702,71.865,118.86,72.67,117.564,72.67 M118.634,66.977
		c0-0.596-0.475-1.068-1.069-1.068h-0.354c-0.594,0-1.067,0.473-1.067,1.068v3.676c0,0.594,0.474,1.07,1.067,1.07h0.354
		c0.595,0,1.069-0.477,1.069-1.07V66.977z"/>
	<path fill="#1B181C" d="M46.701,66.977c0,0.641,0.581,0.865,1.543,1.314c1.257,0.584,1.851,1.201,1.851,2.361
		c0,1.199-0.843,2.018-2.135,2.018h-0.499c-0.569,0-1.034-0.141-1.294-0.344c-0.463-0.355-0.675-0.688-0.675-0.875
		c0-0.037,0.023-0.062,0.07-0.086l0.747-0.381c0.023-0.01,0.047-0.021,0.06-0.021c0.048,0,0.072,0.035,0.107,0.082
		c0.272,0.369,0.438,0.678,0.985,0.678h0.499c0.581,0,1.068-0.475,1.068-1.07c0-0.674-0.511-0.971-1.437-1.398
		c-1.27-0.594-1.958-1.068-1.958-2.277c0-1.211,0.843-2.02,2.136-2.02h0.19c1.163,0,1.969,0.748,1.969,1.199
		c0,0.037-0.024,0.072-0.07,0.096l-0.76,0.381c-0.023,0.008-0.047,0.008-0.06,0.008c-0.047,0-0.06-0.021-0.095-0.07
		c-0.271-0.367-0.475-0.662-0.983-0.662h-0.19C47.188,65.908,46.701,66.369,46.701,66.977"/>
	<path fill="#1B181C" d="M55.958,72.553h-0.832c-0.083,0-0.117-0.035-0.117-0.119V69.35c0-0.084-0.047-0.121-0.119-0.121h-2.434
		c-0.083,0-0.119,0.037-0.119,0.121v3.084c0,0.084-0.034,0.119-0.117,0.119h-0.83c-0.084,0-0.12-0.035-0.12-0.119v-7.24
		c0-0.082,0.035-0.115,0.12-0.115h0.83c0.07,0,0.117,0.033,0.117,0.115v2.967c0,0.084,0.036,0.121,0.119,0.121h2.434
		c0.083,0,0.119-0.037,0.119-0.121v-2.967c0-0.082,0.034-0.115,0.117-0.115h0.832c0.083,0,0.119,0.033,0.119,0.115v7.24
		C56.076,72.518,56.04,72.553,55.958,72.553"/>
	<path fill="#1B181C" d="M59.885,72.67h-0.356c-1.293,0-2.136-0.805-2.136-2.018v-3.676c0-1.211,0.842-2.02,2.136-2.02h0.356
		c1.293,0,2.135,0.809,2.135,2.02v3.676C62.021,71.865,61.179,72.67,59.885,72.67 M60.953,66.977c0-0.596-0.474-1.068-1.067-1.068
		h-0.356c-0.593,0-1.068,0.473-1.068,1.068v3.676c0,0.596,0.475,1.07,1.068,1.07h0.356c0.594,0,1.067-0.475,1.067-1.07V66.977z"/>
	<path fill="#1B181C" d="M67.978,67.213c0,1.188-0.854,2.016-2.134,2.016h-1.307c-0.083,0-0.119,0.037-0.119,0.121v3.084
		c0,0.084-0.036,0.119-0.12,0.119h-0.83c-0.083,0-0.119-0.035-0.119-0.119v-7.24c0-0.084,0.036-0.115,0.119-0.115h2.375
		C67.147,65.078,67.978,65.908,67.978,67.213 M66.909,67.096c0-0.594-0.475-1.072-1.066-1.072h-1.307
		c-0.083,0-0.119,0.037-0.119,0.121v2.016c0,0.084,0.035,0.121,0.119,0.121h1.307c0.591,0,1.066-0.475,1.066-1.068V67.096z"/>
	<path fill="#1B181C" d="M73.614,67.213c0,1.188-0.854,2.016-2.135,2.016h-1.307c-0.083,0-0.119,0.037-0.119,0.121v3.084
		c0,0.084-0.036,0.119-0.118,0.119h-0.831c-0.083,0-0.118-0.035-0.118-0.119v-7.24c0-0.084,0.035-0.115,0.118-0.115h2.375
		C72.783,65.078,73.614,65.908,73.614,67.213 M72.546,67.096c0-0.594-0.475-1.072-1.067-1.072h-1.307
		c-0.083,0-0.119,0.037-0.119,0.121v2.016c0,0.084,0.036,0.121,0.119,0.121h1.307c0.592,0,1.067-0.475,1.067-1.068V67.096z"/>
	<path fill="#1B181C" d="M75.572,72.553h-0.83c-0.083,0-0.119-0.035-0.119-0.119v-7.24c0-0.082,0.036-0.115,0.119-0.115h0.83
		c0.071,0,0.119,0.033,0.119,0.115v7.24C75.69,72.518,75.655,72.553,75.572,72.553"/>
	<path fill="#1B181C" d="M81.803,72.553h-0.761l-0.106-0.061l-2.823-5.326l0.068,5.268c0,0.084-0.033,0.119-0.115,0.119h-0.832
		c-0.082,0-0.118-0.035-0.118-0.119v-7.24c0-0.082,0.036-0.115,0.118-0.115h0.759l0.107,0.059l2.811,5.314l-0.057-5.258
		c0-0.082,0.033-0.115,0.118-0.115h0.831c0.083,0,0.118,0.033,0.118,0.115v7.24C81.921,72.518,81.886,72.553,81.803,72.553"/>
	<path fill="#1B181C" d="M87.925,66.156c0,0.037-0.024,0.072-0.071,0.096l-0.758,0.381c-0.026,0.008-0.049,0.008-0.062,0.008
		c-0.045,0-0.056-0.021-0.092-0.07c-0.274-0.367-0.477-0.662-0.985-0.662h-0.57c-0.595,0-1.068,0.473-1.068,1.068v3.676
		c0,0.596,0.474,1.07,1.068,1.07h0.355c0.594,0,1.066-0.475,1.066-1.07v-0.77c0-0.072-0.046-0.119-0.119-0.119h-1.184
		c-0.083,0-0.119-0.035-0.119-0.119v-0.709c0-0.088,0.036-0.121,0.119-0.121h2.253c0.085,0,0.119,0.033,0.119,0.121v1.717
		c0,1.213-0.844,2.018-2.136,2.018h-0.355c-1.292,0-2.136-0.805-2.136-2.018v-3.676c0-1.211,0.844-2.02,2.136-2.02h0.57
		C87.119,64.957,87.925,65.691,87.925,66.156"/>
</g>
</svg>
