<?xml version="1.0" encoding="UTF-8" standalone="no"?>
<!-- Created with Inkscape (http://www.inkscape.org/) -->

<svg
   xmlns:dc="http://purl.org/dc/elements/1.1/"
   xmlns:cc="http://creativecommons.org/ns#"
   xmlns:rdf="http://www.w3.org/1999/02/22-rdf-syntax-ns#"
   xmlns:svg="http://www.w3.org/2000/svg"
   xmlns="http://www.w3.org/2000/svg"
   xmlns:sodipodi="http://sodipodi.sourceforge.net/DTD/sodipodi-0.dtd"
   xmlns:inkscape="http://www.inkscape.org/namespaces/inkscape"
   id="svg3004"
   version="1.1"
   inkscape:version="0.48.4 r9939"
   width="205.10375"
   height="126.21125"
   xml:space="preserve"
   sodipodi:docname="logo_oficial.PDF"><metadata
     id="metadata3010"><rdf:RDF><cc:Work
         rdf:about=""><dc:format>image/svg+xml</dc:format><dc:type
           rdf:resource="http://purl.org/dc/dcmitype/StillImage" /><dc:title></dc:title></cc:Work></rdf:RDF></metadata><defs
     id="defs3008"><clipPath
       clipPathUnits="userSpaceOnUse"
       id="clipPath3020"><path
         d="m 0,100.969 164.083,0 L 164.083,0 0,0 0,100.969 z"
         id="path3022" /></clipPath></defs><sodipodi:namedview
     pagecolor="#ffffff"
     bordercolor="#666666"
     borderopacity="1"
     objecttolerance="10"
     gridtolerance="10"
     guidetolerance="10"
     inkscape:pageopacity="0"
     inkscape:pageshadow="2"
     inkscape:window-width="1920"
     inkscape:window-height="1056"
     id="namedview3006"
     showgrid="false"
     inkscape:zoom="6.9803603"
     inkscape:cx="102.55187"
     inkscape:cy="63.105625"
     inkscape:window-x="1920"
     inkscape:window-y="24"
     inkscape:window-maximized="1"
     inkscape:current-layer="g3012" /><g
     id="g3012"
     inkscape:groupmode="layer"
     inkscape:label="logo_oficial"
     transform="matrix(1.25,0,0,-1.25,0,126.21125)"><path
       d="m 8.504,8.504 147.075,0 0,83.961 -147.075,0 0,-83.961 z"
       style="fill:#110f0d;fill-opacity:1;fill-rule:nonzero;stroke:none"
       id="path3014" /><g
       id="g3016"><g
         id="g3018"
         clip-path="url(#clipPath3020)"><g
           id="g3024"
           transform="translate(53.5912,64.2894)"><path
             d="m 0,0 c 1.745,0 2.271,-1.593 2.271,-2.468 l -4.7,0 C -2.429,-1.228 -1.569,0 0,0 M 5.011,-7.371 C 4.514,-7.54 3.998,-7.692 3.479,-7.798 2.875,-7.92 2.245,-7.988 1.607,-7.988 c -2.062,0 -3.678,0.686 -3.943,2.321 l 8.801,0 c 0.066,0.314 0.182,1.074 0.182,1.873 0,3.716 -1.851,7.128 -6.566,7.128 -4.581,0 -7.021,-3.593 -7.021,-7.619 0,-4.641 3.243,-7.295 7.774,-7.295 1.154,0 1.997,0.102 2.695,0.244 0.722,0.148 1.517,0.385 2.189,0.687 l -0.707,3.278 z"
             style="fill:#ffffff;fill-opacity:1;fill-rule:nonzero;stroke:none"
             id="path3026" /></g><g
           id="g3028"
           transform="translate(121.9192,64.2894)"><path
             d="m 0,0 c 1.743,0 2.271,-1.593 2.271,-2.468 l -4.703,0 C -2.432,-1.228 -1.57,0 0,0 M 5.009,-7.371 C 4.514,-7.54 3.996,-7.692 3.478,-7.798 2.871,-7.92 2.244,-7.988 1.604,-7.988 c -2.062,0 -3.676,0.686 -3.941,2.321 l 8.801,0 c 0.065,0.314 0.18,1.074 0.18,1.873 0,3.716 -1.848,7.128 -6.565,7.128 -4.582,0 -7.019,-3.593 -7.019,-7.619 0,-4.641 3.243,-7.295 7.773,-7.295 1.154,0 1.996,0.102 2.693,0.244 0.725,0.148 1.52,0.385 2.192,0.687 l -0.709,3.278 z"
             style="fill:#ffffff;fill-opacity:1;fill-rule:nonzero;stroke:none"
             id="path3030" /></g><path
           d="m 62.394,53.014 4.774,0 0,19.34 -4.774,0 0,-19.34 z"
           style="fill:#ffffff;fill-opacity:1;fill-rule:nonzero;stroke:none"
           id="path3032" /><g
           id="g3034"
           transform="translate(76.7493,56.2484)"><path
             d="m 0,0 c -1.55,0 -2.567,1.533 -2.567,3.903 0,1.888 0.682,3.904 2.584,3.904 1.837,0 2.487,-2.09 2.487,-3.883 C 2.504,1.543 1.514,0 0,0 m -0.062,-3.54 c 3.724,0 7.492,2.345 7.492,7.583 0,3.118 -1.847,7.309 -7.258,7.309 -5.573,0 -7.606,-4.061 -7.606,-7.547 0,-4.374 3.038,-7.345 7.372,-7.345"
             style="fill:#ffffff;fill-opacity:1;fill-rule:nonzero;stroke:none"
             id="path3036" /></g><path
           d="m 86.255,53.014 4.773,0 0,14.272 -4.773,0 0,-14.272 z"
           style="fill:#ffffff;fill-opacity:1;fill-rule:nonzero;stroke:none"
           id="path3038" /><path
           d="m 86.255,68.643 4.773,0 0,3.707 -4.773,0 0,-3.707 z"
           style="fill:#ffffff;fill-opacity:1;fill-rule:nonzero;stroke:none"
           id="path3040" /><g
           id="g3042"
           transform="translate(94.8065,71.1686)"><path
             d="m 0,0 0,-3.882 -1.834,0 0,-3.536 1.834,0 0,-5.847 c 0,-3.215 1.471,-5.183 4.828,-5.183 0.629,0 1.34,0.065 1.994,0.162 0.605,0.091 1.143,0.201 1.379,0.278 0.002,0.005 -0.038,3.729 -0.038,3.742 -0.151,-0.053 -1.233,-0.236 -1.63,-0.236 -0.383,0 -0.954,0.05 -1.361,0.467 -0.289,0.298 -0.499,0.781 -0.499,1.569 l 0,5.048 3.086,0 0,3.536 -3.086,0 0,4.408 L 0,0 z"
             style="fill:#ffffff;fill-opacity:1;fill-rule:nonzero;stroke:none"
             id="path3044" /></g><g
           id="g3046"
           transform="translate(105.8482,71.1686)"><path
             d="m 0,0 0,-3.882 -1.833,0 0,-3.536 1.833,0 0,-5.847 c 0,-3.215 1.471,-5.183 4.827,-5.183 0.631,0 1.339,0.065 1.995,0.162 0.603,0.091 1.143,0.201 1.379,0.278 0.003,0.005 -0.036,3.729 -0.036,3.742 -0.153,-0.053 -1.235,-0.236 -1.631,-0.236 -0.384,0 -0.955,0.05 -1.36,0.467 -0.292,0.298 -0.501,0.781 -0.501,1.569 l 0,5.048 3.084,0 0,3.536 -3.084,0 0,4.408 L 0,0 z"
             style="fill:#ffffff;fill-opacity:1;fill-rule:nonzero;stroke:none"
             id="path3048" /></g><g
           id="g3050"
           transform="translate(130.6183,55.3447)"><path
             d="M 0,0 C 0,1.458 1.184,2.639 2.64,2.639 4.099,2.639 5.281,1.458 5.281,0 5.281,-1.459 4.099,-2.64 2.64,-2.64 1.184,-2.64 0,-1.459 0,0"
             style="fill:#88cf29;fill-opacity:1;fill-rule:nonzero;stroke:none"
             id="path3052" /></g><g
           id="g3054"
           transform="translate(28.1832,52.9929)"><path
             d="m 0,0 5.4,0 c 0.368,0 0.808,0.009 1.154,0.027 7.392,0.381 10.469,4.756 10.469,9.808 0,6.309 -4.256,9.844 -11.601,9.844 C 3.537,19.679 1.861,19.615 0,19.457 L 0,0 z M 6.903,3.853 C 6.705,3.836 6.407,3.829 6.217,3.829 l -1.514,0 c 10e-4,0.002 0,11.886 0,11.886 0.523,0.047 1.188,0.077 1.633,0.077 2.774,0 5.73,-1.799 5.73,-5.957 0,-4.338 -2.778,-5.786 -5.163,-5.982"
             style="fill:#ffffff;fill-opacity:1;fill-rule:nonzero;stroke:none"
             id="path3056" /></g><g
           id="g3058"
           transform="translate(28.1832,28.1832)"><path
             d="m 0,0 5.4,0 c 0.368,0 0.808,0.008 1.154,0.027 7.392,0.381 10.469,4.756 10.469,9.808 0,6.309 -4.256,9.844 -11.601,9.844 C 3.537,19.679 1.861,19.615 0,19.458 L 0,0 z M 6.903,3.853 C 6.705,3.837 6.407,3.83 6.217,3.83 l -1.514,0 c 10e-4,10e-4 0,11.885 0,11.885 0.523,0.047 1.188,0.077 1.633,0.077 2.774,0 5.73,-1.799 5.73,-5.957 0,-4.339 -2.778,-5.786 -5.163,-5.982"
             style="fill:#ffffff;fill-opacity:1;fill-rule:nonzero;stroke:none"
             id="path3060" /></g><path
           d="m 47.018,28.183 4.772,0 0,14.272 -4.772,0 0,-14.272 z"
           style="fill:#ffffff;fill-opacity:1;fill-rule:nonzero;stroke:none"
           id="path3062" /><path
           d="m 47.018,43.812 4.772,0 0,3.707 -4.772,0 0,-3.707 z"
           style="fill:#ffffff;fill-opacity:1;fill-rule:nonzero;stroke:none"
           id="path3064" /><path
           d="m 70.242,28.183 4.773,0 0,14.272 -4.773,0 0,-14.272 z"
           style="fill:#ffffff;fill-opacity:1;fill-rule:nonzero;stroke:none"
           id="path3066" /><path
           d="m 70.242,43.812 4.773,0 0,3.707 -4.773,0 0,-3.707 z"
           style="fill:#ffffff;fill-opacity:1;fill-rule:nonzero;stroke:none"
           id="path3068" /><g
           id="g3070"
           transform="translate(78.7622,46.3354)"><path
             d="m 0,0 0,-3.881 -1.833,0 0,-3.537 1.833,0 0,-5.846 c 0,-3.216 1.47,-5.184 4.826,-5.184 0.629,0 1.34,0.065 1.996,0.163 0.606,0.092 1.143,0.202 1.379,0.278 0.003,0.004 -0.035,3.728 -0.035,3.741 -0.154,-0.052 -1.238,-0.234 -1.632,-0.234 -0.384,0 -0.954,0.048 -1.362,0.465 -0.292,0.297 -0.499,0.782 -0.499,1.569 l 0,5.048 3.084,0 0,3.537 -3.084,0 0,4.408 L 0,0 z"
             style="fill:#ffffff;fill-opacity:1;fill-rule:nonzero;stroke:none"
             id="path3072" /></g><path
           d="m 103.278,28.183 4.772,0 0,19.34 -4.772,0 0,-19.34 z"
           style="fill:#ffffff;fill-opacity:1;fill-rule:nonzero;stroke:none"
           id="path3074" /><g
           id="g3076"
           transform="translate(68.1769,29.9467)"><path
             d="m 0,0 c 0,-2.822 -0.572,-5.132 -2.253,-6.605 -1.589,-1.381 -3.783,-1.801 -5.943,-1.801 -1.952,0 -3.962,0.391 -5.282,1.111 l 0.899,3.481 c 0.931,-0.539 2.522,-1.11 4.262,-1.11 2.163,0 3.813,1.141 3.813,3.872 l 0,0.931 -0.059,0 c -0.872,-1.2 -2.282,-1.891 -3.965,-1.891 -3.63,0 -6.211,2.942 -6.211,7.144 0,4.743 3.031,7.745 6.663,7.745 2.012,0 3.272,-0.87 4.023,-2.101 l 0.06,0 0.151,1.772 3.962,0 C 0.059,11.586 0,10.355 0,8.165 L 0,0 z m -4.563,6.574 c 0,0.27 -0.03,0.57 -0.09,0.839 -0.33,1.201 -1.201,2.012 -2.461,2.012 -1.681,0 -3.002,-1.501 -3.002,-4.172 0,-2.192 1.08,-3.903 2.971,-3.903 1.201,0 2.131,0.78 2.43,1.832 0.122,0.36 0.152,0.84 0.152,1.231 l 0,2.161 z"
             style="fill:#ffffff;fill-opacity:1;fill-rule:nonzero;stroke:none"
             id="path3078" /></g><g
           id="g3080"
           transform="translate(101.4159,31.639)"><path
             d="m 0,0 c 0,-1.348 0.06,-2.665 0.233,-3.456 l -4.01,0 -0.264,1.435 -0.086,0 c -0.937,-1.143 -2.402,-1.757 -4.102,-1.757 -2.897,0 -4.625,2.109 -4.625,4.393 0,3.718 3.338,5.475 8.404,5.475 l 0,0.175 c 0,0.762 -0.409,1.845 -2.606,1.845 -1.464,0 -3.016,-0.497 -3.953,-1.054 l -0.822,2.84 c 0.998,0.557 2.96,1.289 5.566,1.289 C -1.492,11.185 0,8.373 0,5.006 L 0,0 z m -4.303,3.309 c -2.342,0 -4.159,-0.558 -4.159,-2.255 0,-1.143 0.763,-1.7 1.757,-1.7 1.083,0 2.021,0.732 2.313,1.641 0.058,0.234 0.089,0.497 0.089,0.761 l 0,1.553 z"
             style="fill:#ffffff;fill-opacity:1;fill-rule:nonzero;stroke:none"
             id="path3082" /></g></g></g></g></svg>