<?xml version="1.0" encoding="utf-8"?>
<!-- Generator: Adobe Illustrator 19.0.0, SVG Export Plug-In . SVG Version: 6.00 Build 0)  -->
<!DOCTYPE svg PUBLIC "-//W3C//DTD SVG 1.1//EN" "http://www.w3.org/Graphics/SVG/1.1/DTD/svg11.dtd">
<svg version="1.1" id="Layer_1" xmlns="http://www.w3.org/2000/svg" xmlns:xlink="http://www.w3.org/1999/xlink" x="0px" y="0px"
	 viewBox="0 0 518.4 69.2" enable-background="new 0 0 518.4 69.2" xml:space="preserve">
<g>
	<rect x="13.9" fill="#010101" width="27.7" height="13.9"/>
	<polygon fill="#010101" points="0,13.9 0,69.2 13.9,69.2 13.9,41.6 34.7,41.6 34.7,27.7 13.9,27.7 13.9,13.9 	"/>
	<polygon fill="#DC515C" points="13.9,0 13.9,13.9 0,13.9 	"/>
	<polygon fill="#010101" points="209.9,13.9 209.9,69.2 223.8,69.2 223.8,41.6 244.6,41.6 244.6,27.7 223.8,27.7 223.8,13.9 	"/>
	<polygon fill="#E4C7A5" points="94.1,0 94.1,13.9 108,13.9 	"/>
	<polygon fill="#010101" points="94.1,13.9 94.1,27.7 80.3,27.7 80.3,13.9 80.3,13.9 94.1,13.9 94.1,0 80.3,0 80.3,0 66.5,13.9 
		66.5,69.2 80.3,69.2 80.3,41.6 94.1,41.6 94.1,69.2 108,69.2 108,13.9 	"/>
	<polygon fill="#010101" points="476.8,0 476.8,69.2 490.7,69.2 490.7,41.6 504.5,41.6 504.5,69.2 518.4,69.2 518.4,0 504.5,0 
		504.5,27.7 490.7,27.7 490.7,0 490.7,0 	"/>
	<polygon fill="#010101" points="152,27.7 152,13.9 166,13.9 166,13.9 166,27.7 179.8,27.7 179.8,13.9 179.8,13.9 166,0 166,0 
		138.2,0 138.2,69.2 152,69.2 152,41.6 166,41.6 166,41.6 166,41.6 166,69.2 179.8,69.2 179.8,41.6 166,27.7 	"/>
	<polygon fill="#DC515C" points="251.5,0 223.8,0 209.9,13.9 223.8,13.9 223.8,13.9 251.5,13.9 	"/>
	<polygon fill="#010101" points="385.2,0 343.6,0 343.6,13.9 357.4,13.9 357.4,69.2 371.3,69.2 371.3,13.9 385.2,13.9 	"/>
	<polygon fill="#E4C7A5" points="452.2,69.2 424.5,69.2 424.5,69.2 410.6,55.4 424.5,55.4 424.5,55.4 452.2,55.4 	"/>
	<polygon fill="#010101" points="288.2,55.4 288.2,55.4 288.2,55.4 288.2,41.6 309,41.6 309,27.7 288.2,27.7 288.2,13.9 288.2,13.9 
		288.2,13.9 315.9,13.9 315.9,0 288.2,0 288.2,0 274.4,13.9 274.4,13.9 274.4,55.4 274.4,55.4 288.2,69.2 288.2,69.2 315.9,69.2 
		315.9,55.4 	"/>
	<polygon fill="#010101" points="424.5,0 424.5,0 410.6,13.9 410.6,55.4 424.5,55.4 424.5,13.9 452.2,13.9 452.2,0 	"/>
</g>
</svg>
